<svg viewBox="0 0 700 550" xmlns="http://www.w3.org/2000/svg" xmlns:serif="http://www.serif.com/" fill-rule="evenodd" clip-rule="evenodd" stroke-linecap="square" stroke-miterlimit="1.5">
  <path fill="#223143" d="M0 0h700v550H0z"/>
  <path d="M389 523.266c0-1.38-1.12-2.5-2.5-2.5h-20c-1.38 0-2.5 1.12-2.5 2.5v5c0 1.38 1.12 2.5 2.5 2.5h20c1.38 0 2.5-1.12 2.5-2.5v-5z" fill="#E15130"/>
  <path d="M393.6 520.832h3.652l-2.492 7.315h2.358v.978h-3.814l2.514-7.347H393.6v-.945zm4.297 2.735h1.025v3.716c.008.343.06.59.153.736.095.14.254.22.476.22.24 0 .4-.07.49-.2.1-.14.14-.38.14-.71v-3.77h1.03v3.32c0 .77-.05 1.29-.17 1.55-.24.51-.73.76-1.49.76-.59 0-1.01-.15-1.26-.45-.25-.31-.37-.81-.37-1.52v-3.68zm6.617.113v.96c-.25-.185-.514-.278-.79-.278-.093 0-.18.015-.258.048-.078.03-.147.075-.206.132-.06.054-.106.12-.14.198-.034.077-.05.16-.05.245 0 .264.24.58.72.945.192.15.353.29.482.42.13.128.227.25.295.364.14.226.21.51.21.853 0 .5-.145.898-.435 1.198-.287.298-.672.447-1.155.447-.297 0-.598-.088-.902-.264v-.993c.297.22.578.332.843.332.47 0 .704-.23.704-.692 0-.173-.043-.32-.13-.447-.04-.06-.1-.13-.187-.212-.086-.08-.192-.17-.317-.27-.433-.337-.727-.62-.88-.85-.15-.236-.227-.52-.227-.854 0-.447.14-.813.42-1.1.28-.284.65-.425 1.09-.425.32 0 .62.082.92.243zm1.262-1.67h1.026v1.557h.558v.815h-.558v4.743h-1.026v-4.743h-.564v-.815h.564v-1.56zm5.504 1.557v5.558h-1.025v-.713c-.146.303-.293.512-.44.627-.147.11-.34.17-.58.17-.462 0-.8-.24-1.015-.71-.215-.47-.322-1.22-.322-2.23 0-.97.107-1.67.322-2.13.215-.46.553-.68 1.015-.68.422 0 .763.24 1.02.72v-.63h1.026zm-2.32 2.755c0 .73.05 1.24.146 1.53.1.29.276.436.526.436.23 0 .396-.15.5-.452.104-.322.156-.817.156-1.487 0-.68-.052-1.18-.156-1.5-.104-.3-.27-.45-.5-.45-.243 0-.417.14-.52.43-.1.26-.15.76-.15 1.48zm3.487-2.755h1.026v.64c.293-.488.673-.73 1.138-.73.46 0 .78.176.97.53.11.2.16.59.16 1.166v3.952h-1.02v-3.717c0-.376-.04-.643-.13-.8-.09-.158-.24-.236-.46-.236-.11 0-.21.02-.29.062-.08.04-.15.108-.2.2-.05.09-.09.208-.11.355-.02.14-.03.32-.03.54v3.59h-1.02v-5.56zm7.627-3.567v9.125h-1.026v-.714c-.147.31-.294.52-.44.63-.147.12-.342.17-.586.17-.458 0-.795-.23-1.01-.7-.215-.47-.322-1.21-.322-2.22 0-.49.027-.91.08-1.26.054-.35.136-.64.245-.87.11-.23.25-.4.422-.51.17-.11.376-.16.612-.16.22 0 .41.05.55.16.07.05.14.12.22.22.07.1.15.21.22.35V520h1.02zm-2.32 6.32c0 .732.048 1.242.144 1.533.1.29.276.435.527.435.23 0 .396-.15.5-.452.103-.322.155-.817.155-1.487 0-.68-.052-1.18-.156-1.5-.103-.3-.27-.45-.5-.45-.243 0-.416.14-.52.43-.1.26-.15.76-.15 1.48zm128.582-5.488h.87l1.778 8.293h-1.106l-.312-1.617h-1.643l-.317 1.617h-1.074l1.804-8.293zm1.07 5.812l-.248-1.322c-.165-.898-.3-1.858-.403-2.88-.05.5-.114 1.003-.193 1.513-.08.51-.172 1.052-.28 1.625l-.203 1.064h1.32zM549.58 520h1.026v6.042l1.306-2.476h1.16l-1.418 2.476 1.606 3.083h-1.203l-1.45-2.953v2.953h-1.026V520zm4.426 2.01h1.026v1.557h.56v.815h-.56v4.743h-1.026v-4.743h-.564v-.815h.564v-1.56zm2.32 1.557h1.03v5.558h-1.03v-5.558zm.484-2.363c.186 0 .347.068.483.204.136.135.205.298.205.488 0 .194-.07.36-.205.495-.136.14-.3.21-.494.21s-.36-.07-.5-.2c-.13-.13-.2-.3-.2-.5 0-.18.07-.34.2-.48.14-.13.31-.2.5-.2zm4.984 5.188c0 1.88-.58 2.82-1.745 2.82s-1.75-.954-1.75-2.863c0-1.92.58-2.88 1.74-2.88.3 0 .56.06.78.17.22.11.4.29.54.53.14.24.25.54.32.9s.1.8.1 1.3zm-1.063-.028c0-.73-.04-1.24-.14-1.524-.09-.29-.27-.435-.51-.435s-.41.143-.52.43c-.09.286-.14.785-.14 1.498s.05 1.21.15 1.493c.11.287.28.43.52.43.25 0 .42-.142.51-.424.1-.265.15-.754.15-1.467zm2.02-2.797h1.03v.64c.3-.488.68-.73 1.14-.73.45 0 .77.176.97.53.11.2.16.59.16 1.166v3.952h-1.02v-3.717c0-.376-.04-.643-.13-.8-.09-.158-.24-.236-.46-.236-.12 0-.21.02-.3.062-.08.04-.14.108-.19.2-.05.09-.08.208-.11.355-.02.14-.03.32-.03.54v3.59h-1.03v-5.56zm6.61 3.683h.96c-.07 1.308-.61 1.962-1.61 1.962-.29 0-.55-.056-.76-.168-.21-.11-.39-.28-.52-.514-.14-.233-.24-.53-.31-.886-.06-.358-.1-.785-.1-1.28 0-.98.14-1.707.41-2.18.28-.472.7-.708 1.27-.708 1.12 0 1.67.98 1.67 2.942v.13H568c0 1.188.236 1.783.71 1.783.43 0 .644-.36.644-1.08zm-.05-1.443c-.04-.585-.11-.967-.2-1.15-.09-.204-.24-.307-.45-.307-.21 0-.36.103-.45.307-.09.183-.15.565-.2 1.15h1.3zm1.96-2.24h1.03v.64c.3-.488.68-.73 1.14-.73.45 0 .77.176.97.53.11.2.16.59.16 1.166v3.952h-1.02v-3.717c0-.376-.04-.643-.13-.8-.09-.158-.24-.236-.46-.236-.12 0-.22.02-.3.062-.08.04-.14.108-.19.2-.05.09-.09.208-.11.355-.02.14-.04.32-.04.54v3.59h-1.02v-5.56z" fill="#fff" fill-rule="nonzero"/>
  <path fill="#fff" d="M514 520.766h25v10h-25z"/>
  <path d="M22 500h660" fill="#fff" stroke="#6189A5"/>
  <path d="M33.406 521.004v1.09c-.34-.243-.647-.365-.92-.365-.293 0-.532.1-.72.31-.185.19-.278.46-.278.79 0 .29.066.54.2.74.067.11.18.25.334.43.156.17.358.38.605.63.454.46.764.86.93 1.19.164.32.246.72.246 1.2 0 .64-.18 1.17-.543 1.58-.36.4-.825.6-1.39.6-.477 0-.883-.13-1.22-.39v-1.11c.398.29.76.43 1.085.43.304 0 .543-.11.714-.31.17-.2.25-.48.25-.82 0-.3-.07-.57-.2-.81-.07-.12-.17-.25-.29-.4-.12-.15-.28-.32-.46-.5-.29-.28-.52-.53-.71-.74-.19-.22-.32-.41-.41-.57-.17-.316-.26-.71-.26-1.19 0-.65.17-1.16.5-1.54.34-.388.79-.58 1.37-.58.39 0 .77.095 1.14.285zm1.278 2.562h1.026v3.717c.007.343.058.59.153.736.095.14.253.22.475.22.233 0 .396-.07.49-.2.092-.14.14-.37.14-.71v-3.77h1.024v3.32c0 .78-.057 1.29-.17 1.56-.24.51-.74.76-1.495.76-.594 0-1.017-.15-1.267-.45-.25-.31-.376-.81-.376-1.52v-3.68zm6.74.107v1.048c-.143-.17-.315-.26-.515-.26-.57 0-.85.61-.85 1.84 0 1.3.28 1.95.84 1.95.15 0 .33-.07.52-.21v.96c-.27.15-.55.22-.83.22-1.1 0-1.66-.93-1.66-2.81 0-1 .13-1.73.41-2.21.27-.47.69-.71 1.27-.71.27 0 .54.07.8.2zM42.23 520h1.026v4.205c.294-.487.673-.73 1.14-.73.45 0 .772.177.966.53.107.202.16.59.16 1.167v3.953h-1.025l-.006-3.717c0-.376-.04-.643-.13-.8-.09-.158-.24-.236-.46-.236-.12 0-.21.02-.3.06-.08.043-.14.11-.19.2-.05.09-.08.21-.11.357-.02.14-.03.32-.03.54v3.59h-1.03V520zm6.6 7.25h.957c-.075 1.307-.612 1.96-1.61 1.96-.298 0-.553-.055-.766-.166-.21-.11-.39-.282-.52-.515-.14-.24-.24-.53-.31-.89s-.1-.79-.1-1.28c0-.98.14-1.71.41-2.18.28-.47.7-.71 1.27-.71 1.12 0 1.67.98 1.67 2.94v.13h-2.35c0 1.19.24 1.78.71 1.78.43 0 .65-.36.65-1.08zm-.052-1.444c-.043-.584-.11-.967-.2-1.15-.092-.204-.243-.306-.45-.306-.212 0-.362.102-.45.306-.09.183-.157.566-.2 1.15h1.3zm4.237-2.24h1.032v5.56h-1.032v-5.56zm.484-2.363c.18 0 .34.068.48.204.13.136.2.3.2.49 0 .192-.07.357-.21.493s-.3.204-.5.204-.36-.068-.5-.204c-.14-.133-.2-.3-.2-.5 0-.186.07-.347.2-.483.15-.136.31-.204.5-.204zm1.7 2.363h1.02v.687c.28-.52.66-.778 1.13-.778.51 0 .86.26 1.04.778.27-.52.66-.778 1.16-.778.39 0 .69.103.89.308.2.206.31.51.31.91v4.432h-1.03v-3.658c0-.42-.04-.7-.12-.843-.08-.147-.22-.22-.44-.22-.25 0-.42.075-.51.225-.09.14-.13.42-.13.83v3.66h-1.06v-3.66c0-.2-.01-.37-.03-.5-.02-.14-.05-.25-.1-.33-.05-.09-.11-.15-.18-.18-.08-.04-.17-.06-.28-.06-.24 0-.41.08-.51.24-.1.16-.15.43-.15.82v3.66H55.2v-5.56zm8.85-2.734h3.65l-2.5 7.315h2.36v.978h-3.81l2.51-7.348h-2.21v-.945zm4.29 2.734h1.02v3.717c0 .343.06.59.15.736.09.14.25.22.47.22.23 0 .39-.07.49-.2.09-.14.14-.37.14-.71v-3.77h1.02v3.32c0 .78-.06 1.29-.17 1.56-.24.51-.74.76-1.5.76-.6 0-1.02-.15-1.27-.45-.25-.31-.38-.81-.38-1.52v-3.68zm6.61.114v.96c-.25-.186-.52-.28-.79-.28-.1 0-.18.017-.26.05-.08.03-.15.075-.21.13-.06.056-.11.123-.14.2-.04.076-.05.158-.05.244 0 .265.24.58.72.945.19.15.35.29.48.41.13.13.23.25.29.36.14.22.21.51.21.85 0 .5-.15.89-.44 1.2-.29.29-.67.44-1.16.44-.3 0-.6-.09-.9-.27v-.99c.29.22.57.33.84.33.47 0 .7-.23.7-.69 0-.18-.04-.32-.13-.45-.04-.06-.1-.13-.19-.21-.087-.08-.19-.17-.318-.27-.43-.34-.726-.62-.88-.85-.15-.24-.225-.52-.225-.86 0-.45.14-.82.41-1.1.28-.29.65-.43 1.09-.43.32 0 .63.08.92.24zm1.26-1.672h1.02v1.558h.56v.816h-.56v4.743h-1.02v-4.743h-.57v-.816h.56v-1.558zm5.5 1.558v5.56H80.7v-.715c-.15.31-.295.52-.442.63-.147.12-.34.17-.58.17-.46 0-.8-.23-1.015-.7-.216-.47-.323-1.21-.323-2.22 0-.96.11-1.67.327-2.12.216-.45.554-.68 1.016-.68.422 0 .762.24 1.02.72v-.63h1.026zm-2.32 2.755c0 .74.05 1.25.14 1.54.1.29.27.44.52.44.23 0 .39-.15.5-.45.1-.32.15-.82.15-1.49s-.05-1.17-.16-1.49c-.11-.3-.27-.45-.5-.45-.25 0-.42.15-.52.43-.1.27-.15.76-.15 1.49zm3.48-2.75h1.03v.64c.29-.49.67-.73 1.14-.73.45 0 .77.18.96.53.11.2.16.59.16 1.17v3.96h-1.02l-.01-3.71c0-.37-.046-.64-.136-.8-.09-.16-.25-.23-.47-.23-.116 0-.215.02-.296.06-.08.05-.15.11-.2.2-.05.09-.085.21-.11.36-.02.15-.033.33-.033.54v3.6h-1v-5.56zM90.5 520v9.13h-1v-.71c-.146.31-.292.52-.44.63-.146.12-.34.17-.585.17-.458 0-.795-.23-1.01-.7-.214-.47-.322-1.21-.322-2.22 0-.48.027-.91.08-1.26.055-.35.136-.64.245-.87.11-.23.25-.4.422-.51.172-.11.376-.16.612-.16.226 0 .412.06.56.16.07.05.144.13.22.22.074.1.148.21.22.35V520h1.025zm-2.32 6.32c0 .74.048 1.25.145 1.54.1.29.28.44.53.44.23 0 .394-.15.5-.45.102-.32.153-.82.153-1.49s-.05-1.17-.154-1.49c-.1-.3-.27-.45-.5-.45-.24 0-.414.15-.52.43-.1.27-.15.76-.15 1.49zm5.633-2.64v.96c-.25-.18-.517-.28-.79-.28-.096 0-.18.02-.26.05-.08.03-.148.08-.207.13-.06.06-.104.13-.14.2-.03.08-.05.16-.05.25 0 .27.24.58.72.95.194.15.355.29.484.42.13.13.23.25.297.37.14.23.21.51.21.86 0 .5-.144.898-.434 1.2-.288.3-.67.447-1.157.447-.3 0-.6-.09-.9-.264v-.997c.292.22.573.33.84.33.47 0 .702-.23.702-.694 0-.17-.045-.32-.13-.447-.04-.06-.1-.13-.19-.21-.087-.08-.193-.17-.32-.27-.433-.34-.73-.62-.88-.85-.15-.24-.226-.52-.226-.853 0-.448.14-.815.41-1.1.28-.285.646-.426 1.09-.426.32 0 .625.08.92.244zm1.082-.11h1.026v.7c.18-.29.35-.5.52-.62.18-.12.4-.18.69-.2v1.08c-.07-.01-.13-.013-.18-.013-.37 0-.63.096-.79.286-.15.183-.23.51-.23.974v3.366h-1.02v-5.56zm6.177 0v5.56h-1.026v-.71c-.144.31-.29.52-.44.63-.144.12-.34.17-.58.17-.46 0-.8-.23-1.013-.7-.213-.47-.32-1.21-.32-2.22 0-.96.107-1.67.32-2.12.217-.45.555-.68 1.017-.68.423 0 .763.24 1.02.72v-.63h1.027zm-2.32 2.76c0 .74.05 1.25.144 1.54.1.29.28.44.53.44.23 0 .397-.15.5-.45.104-.32.156-.82.156-1.49s-.054-1.17-.16-1.49c-.1-.3-.27-.45-.5-.45-.24 0-.414.14-.52.43-.1.267-.15.76-.15 1.49zm3.485-2.75h1.026v3.72c.01.35.06.59.154.74.094.15.253.22.475.22.234 0 .397-.06.49-.19.096-.132.14-.37.14-.71v-3.77h1.03v3.33c0 .78-.06 1.3-.173 1.56-.24.51-.74.765-1.49.765-.6 0-1.02-.15-1.27-.45-.25-.306-.38-.81-.38-1.52V523.6zm4.47 0h1.025v.69c.283-.52.66-.77 1.13-.77.513 0 .86.26 1.043.78.274-.52.66-.78 1.16-.78.39 0 .69.1.896.31.21.205.31.51.31.91v4.43h-1.03v-3.66c0-.42-.04-.7-.11-.844-.08-.147-.22-.22-.44-.22-.25 0-.42.075-.51.225-.08.15-.12.43-.12.84v3.66H109v-3.66c0-.2-.01-.36-.03-.5-.02-.13-.054-.24-.1-.33-.047-.08-.108-.14-.18-.18-.08-.04-.17-.06-.28-.06-.24 0-.407.08-.508.25-.1.16-.15.43-.15.82v3.66h-1.027v-5.56z" fill="#fff" fill-rule="nonzero"/>
  <path fill="#6189A5" d="M20 20h660v460H20z"/>
  <path d="M573.888 365.086l-3.974 3.802-223.802-233.974 3.974-3.802 223.802 233.974z" fill="#fff"/>
  <g fill="#fff">
    <path d="M347.25 132.25h225.5v5.5h-225.5z"/>
    <path d="M567.25 132.25h5.5v235.5h-5.5z"/>
    <path d="M127.25 362.25h445.5v5.5h-445.5z"/>
    <path d="M353.888 134.914L130.086 368.888l-3.974-3.802 223.802-233.974 3.974 3.802z"/>
  </g>
  <g serif:id="Node A">
    <g serif:id="Node E" transform="matrix(2.3 0 0 2.3 -185.3 -60.3)">
      <circle cx="334.5" cy="86.5" r="15.5" fill="#EA6A5F"/>
      <clipPath id="a">
        <circle cx="334.5" cy="86.5" r="15.5"/>
      </clipPath>
      <g clip-path="url(#a)">
        <path d="M330.675 94.167V78.14h8.044v3.77H335v2.334h3.332v3.623H335v2.45h3.715v3.85h-8.045z" fill="#fff" fill-rule="nonzero"/>
      </g>
    </g>
    <g serif:id="Node D" transform="matrix(2.3 0 0 2.3 -185.3 169.7)">
      <circle cx="334.5" cy="86.5" r="15.5" fill="#EA6A5F"/>
      <clipPath id="b">
        <circle cx="334.5" cy="86.5" r="15.5"/>
      </clipPath>
      <g clip-path="url(#b)">
        <path d="M329.602 93.724V77.698h3.737c2.13 0 3.8.574 4.99 1.723 1.56 1.51 2.34 3.61 2.34 6.3 0 2.66-.66 4.71-1.98 6.16-1.13 1.23-2.81 1.85-5.05 1.85h-4.05zm4.33-3.872c1.55-.075 2.324-1.41 2.324-4.006 0-1.28-.197-2.29-.592-3.03-.394-.748-.927-1.122-1.598-1.122h-.135v8.158z" fill="#fff" fill-rule="nonzero"/>
      </g>
    </g>
    <g serif:id="Node C" transform="matrix(2.3 0 0 2.3 -405.3 169.7)">
      <circle cx="334.5" cy="86.5" r="15.5" fill="#EA6A5F"/>
      <clipPath id="c">
        <circle cx="334.5" cy="86.5" r="15.5"/>
      </clipPath>
      <g clip-path="url(#c)">
        <path d="M338.394 89.237l-.25 4.63c-.96.386-1.823.58-2.584.58-1.792 0-3.3-.657-4.525-1.972-1.37-1.474-2.055-3.56-2.055-6.26 0-2.524.643-4.552 1.93-6.08 1.287-1.524 3.007-2.285 5.16-2.285.698 0 1.41.132 2.137.395v4.577c-.643-.643-1.304-.965-1.983-.965-.885 0-1.577.377-2.075 1.13-.5.762-.75 1.814-.75 3.157 0 .65.06 1.23.18 1.743.12.512.3.945.53 1.298.23.353.51.623.85.81.34.186.72.28 1.16.28.74 0 1.49-.346 2.25-1.038z" fill="#fff" fill-rule="nonzero"/>
      </g>
    </g>
    <g serif:id="Node B" transform="matrix(2.3 0 0 2.3 -625.3 169.7)">
      <circle cx="334.5" cy="86.5" r="15.5" fill="#EA6A5F"/>
      <clipPath id="d">
        <circle cx="334.5" cy="86.5" r="15.5"/>
      </clipPath>
      <g clip-path="url(#d)">
        <path d="M329.248 94.167V78.14h5.035c1.882 0 3.276.416 4.182 1.246.92.852 1.38 1.952 1.38 3.3 0 2.008-.996 3.094-2.99 3.26 1.136.167 1.968.54 2.498 1.12.53.583.794 1.42.794 2.513 0 1.37-.447 2.48-1.34 3.32-.885.84-2.05 1.26-3.497 1.26h-6.062zm4.33-3.477l.217.016c.062.003.114.005.155.005.54 0 .97-.14 1.293-.42.32-.28.482-.66.482-1.14 0-.47-.16-.85-.482-1.12-.322-.27-.763-.4-1.324-.4h-.35v3.07zm0-6.32h.29c.518 0 .928-.122 1.23-.365.3-.242.45-.58.45-1.017 0-.927-.508-1.39-1.525-1.39-.05 0-.11 0-.182.005-.07.003-.16.008-.26.015v2.75z" fill="#fff" fill-rule="nonzero"/>
      </g>
    </g>
    <g serif:id="Node A" transform="matrix(2.3 0 0 2.3 -405.3 -60.3)">
      <circle cx="334.5" cy="86.5" r="15.5" fill="#EA6A5F"/>
      <clipPath id="e">
        <circle cx="334.5" cy="86.5" r="15.5"/>
      </clipPath>
      <g clip-path="url(#e)">
        <path d="M340.764 93.28h-4.473l-.32-2.033h-2.91l-.35 2.034h-4.47l3.85-16.02h5.3l3.4 16.03zm-5.304-5.47l-.28-1.867c-.007-.007-.02-.1-.04-.28-.015-.152-.088-.755-.22-1.806-.013-.118-.03-.28-.05-.483l-.084-.773-.135-1.51c-.01.15-.03.31-.05.49l-.08.59c-.05.43-.08.73-.1.89-.02.17-.03.27-.04.3l-.3 1.94-.43 2.51h1.83z" fill="#fff" fill-rule="nonzero"/>
      </g>
    </g>
  </g>
</svg>
